<svg xmlns="http://www.w3.org/2000/svg" viewBox="0 0 60 60">
  <g fill="#FFF">
    <path d="M30 1.5c-16.542 0-30 12.112-30 27 0 5.205 1.647 10.246 4.768 14.604-.59 6.537-2.175 11.39-4.475 13.69-.304.303-.38.768-.188 1.152.17.343.52.554.895.554.046 0 .093-.003.14-.01.405-.057 9.813-1.412 16.617-5.338C21.622 54.712 25.737 55.5 30 55.5c16.542 0 30-12.112 30-27s-13.458-27-30-27zm0 52c-3.487 0-6.865-.57-10.075-1.68 4.075-2.546 4.085-2.727 4.08-3.316 0-.35-.19-.682-.49-.862-.457-.273-1.042-.142-1.338.29-.55.436-2.906 1.948-5.016 3.25-4.463 2.696-10.474 4.2-13.808 4.88 2.202-3.67 3.09-8.986 3.44-13.16.02-.24-.047-.482-.19-.677C3.59 38.143 2 33.398 2 28.5c0-13.785 12.56-25 28-25s28 11.215 28 25-12.56 25-28 25z"/>
    <path d="M16 21.515h15c.552 0 1-.448 1-1s-.448-1-1-1H16c-.552 0-1 .448-1 1s.448 1 1 1zM44 27.515H16c-.552 0-1 .448-1 1s.448 1 1 1h28c.552 0 1-.448 1-1s-.448-1-1-1zM44 35.515H16c-.552 0-1 .448-1 1s.448 1 1 1h28c.552 0 1-.448 1-1s-.448-1-1-1z"/>
  </g>
</svg>
