<svg xmlns="http://www.w3.org/2000/svg" viewBox="0 0 60 60">
  <g fill="#FFF">
    <path d="M56.784 40.046C56.452 39.4 55.794 39 55.07 39h-1.096c-.464-12.195-9.362-22.26-21.017-24.52.017-.16.043-.32.043-.48 0-2.757-2.243-5-5-5s-5 2.243-5 5c0 .16.025.32.043.48C11.387 16.74 2.49 26.805 2.025 39H1.93c-.726 0-1.383.4-1.715 1.046S-.06 41.46.36 42.05l2.26 3.164C3.868 46.96 5.89 48 8.035 48h40.932c2.143 0 4.167-1.04 5.413-2.786l2.26-3.164c.42-.59.476-1.36.144-2.004zM25.006 14.172C25.002 14.114 25 14.056 25 14c0-1.654 1.346-3 3-3s3 1.346 3 3c0 .057-.002.114-.006.172-.047-.005-.094-.007-.14-.012-.344-.038-.69-.065-1.038-.09-.128-.008-.255-.02-.383-.028C28.957 14.015 28.48 14 28 14s-.958.015-1.432.04c-.128.008-.255.02-.383.03-.348.024-.694.052-1.038.09-.047.005-.094.006-.14.012zm-.6 2.097c.535-.08 1.075-.14 1.615-.183.11-.01.22-.017.33-.024 1.1-.074 2.202-.074 3.3 0l.33.024c.54.044 1.08.102 1.615.182C42.805 17.96 51.503 27.436 51.98 39H4.02c.477-11.563 9.173-21.04 20.386-22.73zM52.75 44.05c-.87 1.22-2.286 1.95-3.785 1.95H8.035c-1.5 0-2.915-.73-3.787-1.948L2.068 41H54.93l-2.18 3.05z"/>
    <path d="M27.986 18c-1.643 0-3.278.18-4.86.537-.54.12-.877.656-.756 1.195.105.465.518.78.975.78.073 0 .147-.008.22-.024 1.44-.324 2.926-.488 4.42-.488H28c.55 0 1-.447 1-1 0-.556-.444-1.02-1.014-1zM17.15 20.9c-5.204 3.082-8.992 8.66-10.134 14.92-.1.544.26 1.064.805 1.163.06.012.12.017.18.017.475 0 .896-.338.984-.82 1.04-5.698 4.473-10.768 9.186-13.56.475-.28.632-.895.35-1.37-.282-.475-.894-.632-1.37-.35z"/>
  </g>
</svg>
